<svg id="contents" xmlns="http://www.w3.org/2000/svg" width="288.6" height="26.5" viewBox="0 0 288.6 26.5">
  <title>pc</title>
  <g>
    <g>
      <g>
        <path d="M62.6,7.8,60.3,10a6.6,6.6,0,0,0-4.9-2.2,5.6,5.6,0,0,0-4.1,1.6,5.3,5.3,0,0,0-1.7,4,5.5,5.5,0,0,0,1.7,4.1,5.8,5.8,0,0,0,4.2,1.7,5.2,5.2,0,0,0,2.8-.7,4.8,4.8,0,0,0,1.8-2.2H55.4l2-3h6.3V14a8.1,8.1,0,0,1-1.1,4.1,7.9,7.9,0,0,1-2.9,3,8.3,8.3,0,0,1-4.2,1A9.4,9.4,0,0,1,50.9,21a8.2,8.2,0,0,1-3.2-3.2,8.9,8.9,0,0,1-1.2-4.5,8.3,8.3,0,0,1,2.2-5.7,8.6,8.6,0,0,1,6.7-2.9,10.3,10.3,0,0,1,4.1.8A9.3,9.3,0,0,1,62.6,7.8Z" fill="#fff"/>
        <path d="M74.5,4.7a8.3,8.3,0,0,1,6.1,2.6,8.5,8.5,0,0,1,2.5,6.2,8.4,8.4,0,0,1-2.5,6.2,8.7,8.7,0,0,1-12.3-.1,8.6,8.6,0,0,1-2.5-6.1A8.6,8.6,0,0,1,67,9a8.7,8.7,0,0,1,7.5-4.3Zm0,3.1a5.2,5.2,0,0,0-3.9,1.6A5.6,5.6,0,0,0,69,13.5a5.3,5.3,0,0,0,2,4.4,5.4,5.4,0,0,0,3.5,1.3,5.2,5.2,0,0,0,3.8-1.6,5.5,5.5,0,0,0,1.6-4,5.6,5.6,0,0,0-1.6-4A5.2,5.2,0,0,0,74.5,7.8Z" fill="#fff"/>
        <path d="M89.3,5.1h3.2l6.4,16.6H95.6l-1.3-3.4H87.5l-1.4,3.4H82.9Zm1.6,4.4-2.2,5.7h4.4Z" fill="#fff"/>
        <path d="M101.4,5.1h3.2v6.3h5.5V5.1h3.2V21.7h-3.2V14.4h-5.5v7.3h-3.2Z" fill="#fff"/>
        <path d="M116.7,5.1h9.1V8.2h-5.9v3h5.9v3h-5.9v4.4h5.9v3.1h-9.1Z" fill="#fff"/>
        <path d="M134.2,5.1h3.2l6.4,16.6h-3.3l-1.3-3.4h-6.8l-1.4,3.4h-3.3Zm1.6,4.4-2.2,5.7H138Z" fill="#fff"/>
        <path d="M146.3,5.1H150a12.4,12.4,0,0,1,5.4.9,7,7,0,0,1,2.9,2.9,9.4,9.4,0,0,1,1.1,4.7,9.5,9.5,0,0,1-.6,3.5,7.3,7.3,0,0,1-1.8,2.7,6.2,6.2,0,0,1-2.4,1.5,17.3,17.3,0,0,1-4.5.4h-3.8Zm3.1,3.1V18.6h1.5a7.4,7.4,0,0,0,3.1-.5,3.8,3.8,0,0,0,1.6-1.7,6.1,6.1,0,0,0,.6-2.9,5.5,5.5,0,0,0-1.5-4.1,5.9,5.9,0,0,0-4.3-1.3Z" fill="#fff"/>
        <path d="M165.7,5.1h3.1l2.4,10.6,3-10.6h2.6l3,10.6,2.4-10.6h3.1l-3.7,16.6h-3L175.5,11l-3,10.7h-3Z" fill="#fff"/>
        <path d="M194.7,4.7a8.3,8.3,0,0,1,6.1,2.6,8.5,8.5,0,0,1,2.5,6.2,8.4,8.4,0,0,1-2.5,6.2,8.7,8.7,0,0,1-12.3-.1,8.6,8.6,0,0,1-2.5-6.1A8.6,8.6,0,0,1,187.2,9a8.7,8.7,0,0,1,7.5-4.3Zm0,3.1a5.2,5.2,0,0,0-3.9,1.6,5.6,5.6,0,0,0-1.6,4.1,5.3,5.3,0,0,0,2,4.4,5.4,5.4,0,0,0,3.5,1.3,5.2,5.2,0,0,0,3.8-1.6,5.5,5.5,0,0,0,1.6-4,5.6,5.6,0,0,0-1.6-4A5.2,5.2,0,0,0,194.7,7.8Z" fill="#fff"/>
        <path d="M206.1,5.1h3.4a11.1,11.1,0,0,1,3.9.5,4,4,0,0,1,1.9,1.6,5,5,0,0,1,.7,2.7,4.6,4.6,0,0,1-.8,2.7,4.8,4.8,0,0,1-2.4,1.7l3.9,7.4h-3.5l-3.7-7h-.3v7h-3.2Zm3.2,6.5h1a3.9,3.9,0,0,0,2.1-.4,1.5,1.5,0,0,0,.6-1.3,1.6,1.6,0,0,0-.3-.9,1.6,1.6,0,0,0-.8-.6l-1.7-.2h-.9Z" fill="#fff"/>
        <path d="M219.3,5.1h3.2v5.7L227,5.1h3.8L225,12.5l6.4,9.2h-3.8l-5.1-7.4v7.4h-3.2Z" fill="#fff"/>
        <path d="M242.8,7.4l-2.3,2.1A3.3,3.3,0,0,0,238,7.7a1.5,1.5,0,0,0-1,.3,1,1,0,0,0-.4.8,1.3,1.3,0,0,0,.3.8l2.3,2.1,2.2,1.9a6.6,6.6,0,0,1,1.4,1.9,4.6,4.6,0,0,1,.4,1.9,4.4,4.4,0,0,1-1.4,3.4,5.2,5.2,0,0,1-3.7,1.3,5.5,5.5,0,0,1-3.1-.9,6.9,6.9,0,0,1-2.3-2.7l2.7-1.6q1.2,2.2,2.8,2.2a2,2,0,0,0,1.4-.5,1.4,1.4,0,0,0,.6-1.1,1.9,1.9,0,0,0-.4-1.1,12.1,12.1,0,0,0-1.8-1.7,18.6,18.6,0,0,1-3.5-3.4,4.3,4.3,0,0,1-.8-2.4,3.9,3.9,0,0,1,1.3-3A4.6,4.6,0,0,1,238,4.7a5.1,5.1,0,0,1,2.4.6A8.6,8.6,0,0,1,242.8,7.4Z" fill="#fff"/>
        <path d="M251.4,5.1h3.1V21.7h-3.1Z" fill="#fff"/>
        <path d="M257.8,9.4h3.1v1.3a7.4,7.4,0,0,1,1.9-1.2,4.6,4.6,0,0,1,1.7-.3,4.2,4.2,0,0,1,3.1,1.3,4.4,4.4,0,0,1,1.1,3.2v8.1h-3.1V16.3a13.6,13.6,0,0,0-.2-2.9,2,2,0,0,0-.7-1.1,1.9,1.9,0,0,0-1.2-.4,2.3,2.3,0,0,0-1.6.6,3.3,3.3,0,0,0-.9,1.7,14,14,0,0,0-.1,2.5v4.9h-3.1Z" fill="#fff"/>
        <path d="M286.8,18.5a1.7,1.7,0,0,1,1.3.5,1.8,1.8,0,0,1,0,2.5,1.8,1.8,0,0,1-3-1.3,1.7,1.7,0,0,1,.5-1.2A1.7,1.7,0,0,1,286.8,18.5Z" fill="#fff"/>
      </g>
      <g>
        <path d="M6.2,13.2A13.8,13.8,0,0,1,16.2,0C7,1.2,0,6.7,0,13.2S7,25.3,16.2,26.5A13.8,13.8,0,0,1,6.2,13.2Z" fill="#fff"/>
        <path d="M40,13.2C40,6.7,33,1.2,23.7,0a13.8,13.8,0,0,1,0,26.5C33,25.3,40,19.8,40,13.2Z" fill="#fff"/>
        <g>
          <path d="M16.2,25.2a8.5,8.5,0,0,0,2.5.4c5.1,0,9.2-4.5,9.2-9.9,0-.1,0-.1,0-.2h0a5.4,5.4,0,1,1-2-10.5,5.5,5.5,0,0,1,1.9.3L26.9,5s5.8.8,5.9,8.3A12.6,12.6,0,0,1,16.2,25.2Z" fill="#fff"/>
          <path d="M32.5,10.6a8.6,8.6,0,0,0-1-2.4C29,3.9,23.1,2.6,18.3,5.4h-.2a5.4,5.4,0,1,1-8.1,7.1,5.4,5.4,0,0,1-.7-1.8l.2.9S7.4,6.3,13.8,2.4a12.6,12.6,0,0,1,18.7,8.2Z" fill="#fff"/>
          <path d="M11.7,3.9a8.4,8.4,0,0,0-1.6,2c-2.5,4.4-.6,10.2,4.2,12.9h.2a5.4,5.4,0,1,1,8.9,4.9l.7-.7s-3.5,4.6-10.1,1A12.6,12.6,0,0,1,11.7,3.9Z" fill="#fff"/>
        </g>
      </g>
    </g>
    <path d="M280.3,18.3a3.7,3.7,0,0,1-2.4,1H277a3.6,3.6,0,0,1-2.3-1,3.4,3.4,0,0,1-1-2.6,3.5,3.5,0,0,1,1.1-2.7,3.7,3.7,0,0,1,2.4-1h.8a3.6,3.6,0,0,1,2.3,1l.6.9h3.3a6.5,6.5,0,0,0-1.6-2.8,5.8,5.8,0,0,0-1.7-1.2h-.5a7.5,7.5,0,0,0-2.8-.5,7.9,7.9,0,0,0-2.3.3h-.5a6.2,6.2,0,0,0-2.1,1.3l-.2.2-.3.3-.3.4h0l-.4.6a6.5,6.5,0,0,0,1,7.8,5.8,5.8,0,0,0,1.7,1.2h.5a7.5,7.5,0,0,0,2.8.5,7.9,7.9,0,0,0,2.3-.3h.5a6.2,6.2,0,0,0,2.1-1.3l.2-.2.3-.3.3-.4h0l.4-.6a6.4,6.4,0,0,0,.7-1.6h-3.3Z" fill="#fff"/>
  </g>
</svg>
